<?xml version="1.0" standalone="no"?>
<!DOCTYPE svg PUBLIC "-//W3C//DTD SVG 20010904//EN"
 "http://www.w3.org/TR/2001/REC-SVG-20010904/DTD/svg10.dtd">
<svg version="1.0" xmlns="http://www.w3.org/2000/svg"
 width="500.000000pt" height="500.000000pt" viewBox="0 0 500.000000 500.000000"
 preserveAspectRatio="xMidYMid meet">

<g transform="translate(0.000000,500.000000) scale(0.100000,-0.100000)"
fill="#000000" stroke="none">
<path d="M2119 3387 c-243 -397 -449 -732 -457 -745 -10 -15 37 10 139 74 85
54 249 156 364 226 l210 127 7 -27 c98 -371 153 -526 262 -738 285 -548 702
-959 1251 -1229 149 -73 402 -175 436 -175 7 0 -14 19 -47 41 -309 216 -625
534 -857 862 -145 205 -306 505 -401 748 -72 184 -168 520 -154 535 3 3 30 -7
59 -21 75 -39 337 -140 603 -234 127 -45 231 -81 233 -81 2 0 -88 98 -200 218
-331 352 -558 608 -869 979 l-136 161 -443 -721z"/>
<path d="M1801 2509 c-118 -10 -217 -22 -221 -26 -8 -9 -930 -1561 -930 -1565
0 -2 142 2 315 7 262 8 317 13 326 25 5 8 24 40 41 70 52 90 189 218 285 268
283 146 609 96 848 -130 46 -43 100 -105 121 -137 46 -71 27 -67 377 -77 l238
-7 -21 52 c-115 293 -363 577 -631 725 -199 109 -491 179 -686 163 -35 -2 -63
-3 -63 -1 0 2 70 148 155 325 85 176 155 323 155 325 0 7 -87 2 -309 -17z"/>
</g>
</svg>
